<svg xmlns="http://www.w3.org/2000/svg" viewBox="0 0 122.88 122.88"><path d="M17.89 0h88.9c8.85 0 16.1 7.24 16.1 16.1v90.68c0 8.85-7.24 16.1-16.1 16.1H16.1c-8.85 0-16.1-7.24-16.1-16.1v-88.9C0 8.05 8.05 0 17.89 0zm16.82 31.06h27.91c5.49 0 9.94.75 13.32 2.23 3.38 1.5 6.18 3.63 8.4 6.42 2.21 2.8 3.8 6.04 4.79 9.74 1 3.71 1.5 7.62 1.5 11.77 0 6.49-.74 11.53-2.22 15.11-1.47 3.58-3.52 6.58-6.15 9-2.63 2.42-5.45 4.03-8.46 4.84-4.12 1.1-7.85 1.65-11.19 1.65h-27.9V31.06zm18.75 13.75v33.18h4.61c3.93 0 6.73-.44 8.4-1.3 1.65-.88 2.96-2.39 3.9-4.55.95-2.18 1.41-5.69 1.41-10.55 0-6.44-1.05-10.83-3.15-13.21-2.11-2.38-5.6-3.56-10.48-3.56h-4.69v-.01z" fill-rule="evenodd" clip-rule="evenodd"/></svg>