<?xml version="1.0" encoding="utf-8"?>
<!-- Generated by IcoMoon.io -->
<!DOCTYPE svg PUBLIC "-//W3C//DTD SVG 1.1//EN" "http://www.w3.org/Graphics/SVG/1.1/DTD/svg11.dtd">
<svg version="1.1" xmlns="http://www.w3.org/2000/svg" xmlns:xlink="http://www.w3.org/1999/xlink" width="512" height="512" viewBox="0 0 512 512">
<path fill="#444444" d="M512 256q0 7.428-5.428 12.857l-73.143 73.143q-5.428 5.428-12.857 5.428t-12.857-5.428-5.428-12.857v-36.572h-109.714v109.714h36.572q7.428 0 12.857 5.428t5.428 12.857-5.428 12.857l-73.143 73.143q-5.428 5.428-12.857 5.428t-12.857-5.428l-73.143-73.143q-5.428-5.428-5.428-12.857t5.428-12.857 12.857-5.428h36.571v-109.714h-109.715v36.572q0 7.428-5.429 12.857t-12.857 5.428-12.857-5.428l-73.143-73.143q-5.429-5.428-5.429-12.857t5.429-12.857l73.143-73.143q5.429-5.428 12.857-5.428t12.857 5.428 5.429 12.857v36.571h109.715v-109.715h-36.572q-7.428 0-12.857-5.429t-5.429-12.857 5.428-12.857l73.143-73.143q5.429-5.429 12.857-5.429t12.857 5.429l73.143 73.143q5.428 5.429 5.428 12.857t-5.428 12.857-12.857 5.429h-36.572v109.715h109.714v-36.572q0-7.428 5.428-12.857t12.857-5.429 12.857 5.428l73.143 73.143q5.428 5.429 5.428 12.857z"></path>
</svg>
