<?xml version="1.0" encoding="utf-8"?>
<!-- Generated by IcoMoon.io -->
<!DOCTYPE svg PUBLIC "-//W3C//DTD SVG 1.1//EN" "http://www.w3.org/Graphics/SVG/1.1/DTD/svg11.dtd">
<svg version="1.1" xmlns="http://www.w3.org/2000/svg" xmlns:xlink="http://www.w3.org/1999/xlink" width="476" height="512" viewBox="0 0 476 512">
<path fill="#444444" d="M402.286 265.715v90.857q0 34-24.143 58.143t-58.143 24.143h-237.715q-34 0-58.143-24.143t-24.143-58.143v-237.715q0-34 24.143-58.143t58.143-24.143h237.715q18 0 33.428 7.143 4.286 2 5.143 6.572 0.857 4.857-2.572 8.285l-14 14q-2.857 2.857-6.572 2.857-0.857 0-2.572-0.572-6.572-1.715-12.857-1.715h-237.715q-18.857 0-32.286 13.429t-13.429 32.286v237.715q0 18.857 13.429 32.286t32.286 13.428h237.715q18.857 0 32.286-13.428t13.428-32.286v-72.572q0-3.714 2.572-6.286l18.286-18.286q2.857-2.857 6.572-2.857 1.714 0 3.428 0.857 5.714 2.286 5.714 8.286zM468.286 126l-232.572 232.572q-6.857 6.857-16.285 6.857t-16.286-6.857l-122.857-122.857q-6.857-6.857-6.857-16.285t6.857-16.286l31.429-31.428q6.857-6.857 16.286-6.857t16.285 6.857l75.143 75.143 184.857-184.857q6.857-6.857 16.286-6.857t16.286 6.857l31.428 31.429q6.857 6.857 6.857 16.286t-6.857 16.286z"></path>
</svg>
