<?xml version="1.0" encoding="utf-8"?>
<!-- Generator: Adobe Illustrator 19.1.0, SVG Export Plug-In . SVG Version: 6.00 Build 0)  -->
<!DOCTYPE svg PUBLIC "-//W3C//DTD SVG 1.1//EN" "http://www.w3.org/Graphics/SVG/1.1/DTD/svg11.dtd">
<svg version="1.1" id="Layer_1" xmlns="http://www.w3.org/2000/svg" xmlns:xlink="http://www.w3.org/1999/xlink" x="0px" y="0px"
	 viewBox="0 0 512 512" enable-background="new 0 0 512 512" xml:space="preserve">
<g>
	<polygon fill="#444" points="287.3,191 223.3,191 223.3,351 159.3,351 255.3,479 351.3,351 287.3,351 	"/>
	<path fill="#444" d="M447.1,176.8l0.2-1.8c0-79.5-64.5-144-144-144c-53.4,0-99.6,29.4-124.4,72.7c-10.8-5.4-22.7-8.7-35.6-8.7
		c-44.2,0-80,35.8-80,80l0.2,1.8C25.4,199-0.7,239.9-0.7,287c0,70.4,57.6,128,128,128v-32c-52.9,0-96-43.1-96-96
		c0-33.6,18.5-65.2,48.3-82.6l15.9-9.3v-18.4l-0.2-3.3c0.8-25.8,22-46.4,48-46.4c7.1,0,14.2,1.8,21.3,5.3l27,13.5l15-26.2
		C227.1,84.2,263.2,63,303.3,63c61.1,0,110.9,49.2,112,110.1l-0.2,1.2v20.9l15.9,9.3c29.8,17.4,48.3,49,48.3,82.6
		c0,52.9-43.1,96-96,96v32c70.4,0,128-57.6,128-128C511.3,239.9,485.3,199,447.1,176.8z"/>
</g>
</svg>
