<?xml version="1.0" encoding="utf-8"?>
<!-- Generated by IcoMoon.io -->
<!DOCTYPE svg PUBLIC "-//W3C//DTD SVG 1.1//EN" "http://www.w3.org/Graphics/SVG/1.1/DTD/svg11.dtd">
<svg version="1.1" xmlns="http://www.w3.org/2000/svg" xmlns:xlink="http://www.w3.org/1999/xlink" width="439" height="512" viewBox="0 0 439 512">
<path fill="#444444" d="M292.572 256q0-30.286-21.428-51.714t-51.714-21.428-51.714 21.428-21.428 51.714 21.428 51.714 51.714 21.428 51.714-21.428 21.428-51.714zM438.857 224.857v63.429q0 3.428-2.286 6.572t-5.714 3.714l-52.857 8q-5.428 15.428-11.143 26 10 14.286 30.572 39.428 2.857 3.428 2.857 7.143t-2.572 6.572q-7.714 10.572-28.286 30.857t-26.857 20.286q-3.428 0-7.428-2.572l-39.428-30.857q-12.572 6.572-26 10.857-4.572 38.857-8.286 53.143-2 8-10.286 8h-63.428q-4 0-7-2.428t-3.286-6.143l-8-52.572q-14-4.572-25.714-10.572l-40.286 30.572q-2.857 2.572-7.143 2.572-4 0-7.143-3.143-36-32.572-47.143-48-2-2.857-2-6.572 0-3.428 2.285-6.572 4.285-6 14.572-19t15.429-20.143q-7.715-14.286-11.715-28.286l-52.286-7.714q-3.715-0.572-6-3.572t-2.286-6.714v-63.428q0-3.429 2.286-6.572t5.429-3.714l53.143-8q4-13.143 11.143-26.286-11.429-16.286-30.572-39.428-2.857-3.429-2.857-6.857 0-2.857 2.572-6.572 7.429-10.285 28.143-30.715t27-20.429q3.715 0 7.429 2.857l39.428 30.572q12.572-6.572 26-10.857 4.572-38.857 8.286-53.143 2-8 10.286-8h63.428q4 0 7 2.428t3.286 6.143l8 52.572q14 4.572 25.714 10.572l40.572-30.572q2.572-2.572 6.857-2.572 3.714 0 7.143 2.857 36.857 34 47.143 48.572 2 2.286 2 6.286 0 3.429-2.286 6.571-4.286 6-14.572 19t-15.428 20.143q7.428 14.286 11.714 28l52.286 8q3.714 0.571 6 3.571t2.286 6.714z"></path>
</svg>
