<?xml version="1.0" encoding="utf-8"?>
<!-- Generated by IcoMoon.io -->
<!DOCTYPE svg PUBLIC "-//W3C//DTD SVG 1.1//EN" "http://www.w3.org/Graphics/SVG/1.1/DTD/svg11.dtd">
<svg version="1.1" xmlns="http://www.w3.org/2000/svg" xmlns:xlink="http://www.w3.org/1999/xlink" width="476" height="512" viewBox="0 0 476 512">
<path fill="#444444" d="M402.286 283.429v137.143q0 7.428-5.428 12.857t-12.857 5.428h-109.714v-109.714h-73.143v109.714h-109.715q-7.429 0-12.857-5.428t-5.429-12.857v-137.143q0-0.286 0.143-0.857t0.143-0.857l164.286-135.429 164.285 135.429q0.286 0.572 0.286 1.714zM466 263.715l-17.714 21.143q-2.286 2.572-6 3.143h-0.857q-3.714 0-6-2l-197.715-164.857-197.715 164.857q-3.428 2.286-6.857 2-3.715-0.572-6-3.143l-17.715-21.143q-2.286-2.857-2-6.714t3.143-6.143l205.428-171.143q9.143-7.429 21.714-7.429t21.714 7.429l69.714 58.286v-55.715q0-4 2.572-6.572t6.572-2.572h54.857q4 0 6.572 2.572t2.572 6.572v116.572l62.572 52q2.857 2.286 3.143 6.143t-2 6.714z"></path>
</svg>
