<?xml version="1.0" encoding="utf-8"?>
<!-- Generator: Adobe Illustrator 19.1.0, SVG Export Plug-In . SVG Version: 6.00 Build 0)  -->
<!DOCTYPE svg PUBLIC "-//W3C//DTD SVG 1.1//EN" "http://www.w3.org/Graphics/SVG/1.1/DTD/svg11.dtd">
<svg version="1.1" id="Layer_1" xmlns="http://www.w3.org/2000/svg" xmlns:xlink="http://www.w3.org/1999/xlink" x="0px" y="0px"
	 viewBox="0 0 512 512" enable-background="new 0 0 512 512" xml:space="preserve">
<path fill="#444" d="M436.5,75.2c-99.8-99.8-261.7-99.8-361.6,0C-25,175-25,336.9,74.9,436.8c99.8,99.8,261.8,99.8,361.6,0
	C536.3,337,536.3,175,436.5,75.2z M251.6,44.5c27,0,48.9,22,48.9,49c0,27.2-22,49.4-48.9,49.4c-27.2,0-49.5-22.2-49.5-49.4
	C202.1,66,223.8,44.5,251.6,44.5z M330.2,404.6c0,10.3-5,15.3-15.3,15.3H188.7c-10.3,0-15.3-5-15.3-15.3v-32.2
	c0-10.3,5-15.3,15.3-15.3H212V221.2h-23.9c-10.3,0-15.3-5-15.3-15.3v-32.2c0-10.3,5-15.3,15.3-15.3h88.2c10.3,0,15.3,5,15.3,15.3
	v183.4H315c10.3,0,15.3,5,15.3,15.3V404.6z"/>
<g>
</g>
<g>
</g>
<g>
</g>
<g>
</g>
<g>
</g>
<g>
</g>
<g>
</g>
<g>
</g>
<g>
</g>
<g>
</g>
<g>
</g>
<g>
</g>
<g>
</g>
<g>
</g>
<g>
</g>
</svg>
