<?xml version="1.0" encoding="UTF-8" standalone="no"?>
<svg
   xmlns:dc="http://purl.org/dc/elements/1.1/"
   xmlns:cc="http://creativecommons.org/ns#"
   xmlns:rdf="http://www.w3.org/1999/02/22-rdf-syntax-ns#"
   xmlns:svg="http://www.w3.org/2000/svg"
   xmlns="http://www.w3.org/2000/svg"
   xmlns:sodipodi="http://sodipodi.sourceforge.net/DTD/sodipodi-0.dtd"
   xmlns:inkscape="http://www.inkscape.org/namespaces/inkscape"
   width="512"
   height="512"
   viewBox="0 0 512 512"
   id="svg3435"
   version="1.1"
   inkscape:version="0.91 r13725"
   sodipodi:docname="pencil.svg">
  <metadata
     id="metadata3443">
    <rdf:RDF>
      <cc:Work
         rdf:about="">
        <dc:format>image/svg+xml</dc:format>
        <dc:type
           rdf:resource="http://purl.org/dc/dcmitype/StillImage" />
        <dc:title></dc:title>
      </cc:Work>
    </rdf:RDF>
  </metadata>
  <defs
     id="defs3441" />
  <sodipodi:namedview
     pagecolor="#ffffff"
     bordercolor="#666666"
     borderopacity="1"
     objecttolerance="10"
     gridtolerance="10"
     guidetolerance="10"
     inkscape:pageopacity="0"
     inkscape:pageshadow="2"
     inkscape:window-width="903"
     inkscape:window-height="480"
     id="namedview3439"
     showgrid="false"
     inkscape:zoom="0.13169643"
     inkscape:cx="-41.762712"
     inkscape:cy="896"
     inkscape:window-x="0"
     inkscape:window-y="0"
     inkscape:window-maximized="0"
     inkscape:current-layer="svg3435" />
  <path
     d="m 143.24851,435.9165 26.00859,-26.00858 -67.16502,-67.16502 -26.00858,26.00859 0,30.58151 36.5835,0 0,36.5835 30.58151,0 z M 292.7264,170.68614 q 0,-6.28779 -6.28779,-6.28779 -2.85808,0 -4.85874,2.00066 L 126.67162,321.30726 q -2.00066,2.00066 -2.00066,4.85875 0,6.28779 6.28779,6.28779 2.85808,0 4.85874,-2.00066 L 290.72574,175.54488 q 2.00066,-2.00066 2.00066,-4.85874 z M 277.29274,115.81089 396.18911,234.70726 158.39637,472.5 39.5,472.5 39.5,353.60363 Z M 472.5,143.24851 q 0,15.14786 -10.57492,25.72278 L 414.48086,216.41551 295.58449,97.519142 343.02871,50.360726 Q 353.31782,39.5 368.75149,39.5 q 15.14785,0 26.00858,10.860726 l 67.16501,66.879204 Q 472.5,128.38647 472.5,143.24851 Z"
     id="path3437"
     inkscape:connector-curvature="0" />
</svg>
