<?xml version="1.0" encoding="utf-8"?>
<!-- Generated by IcoMoon.io -->
<!DOCTYPE svg PUBLIC "-//W3C//DTD SVG 1.1//EN" "http://www.w3.org/Graphics/SVG/1.1/DTD/svg11.dtd">
<svg version="1.1" xmlns="http://www.w3.org/2000/svg" xmlns:xlink="http://www.w3.org/1999/xlink" width="439" height="512" viewBox="0 0 439 512">
<path fill="#444444" d="M103.715 438.857l26-26-67.143-67.143-26 26v30.572h36.572v36.572h30.572zM253.143 173.715q0-6.286-6.286-6.286-2.857 0-4.857 2l-154.857 154.857q-2 2-2 4.857 0 6.286 6.285 6.286 2.857 0 4.857-2l154.857-154.857q2-2 2-4.857zM237.715 118.857l118.857 118.857-237.715 237.715h-118.857v-118.857zM432.857 146.286q0 15.143-10.572 25.714l-47.428 47.428-118.857-118.857 47.428-47.143q10.286-10.857 25.714-10.857 15.143 0 26 10.857l67.143 66.857q10.572 11.143 10.572 26z"></path>
</svg>
