<?xml version="1.0" encoding="utf-8"?>
<!-- Generator: Adobe Illustrator 19.1.0, SVG Export Plug-In . SVG Version: 6.00 Build 0)  -->
<!DOCTYPE svg PUBLIC "-//W3C//DTD SVG 1.1//EN" "http://www.w3.org/Graphics/SVG/1.1/DTD/svg11.dtd">
<svg version="1.1" id="Layer_1" xmlns="http://www.w3.org/2000/svg" xmlns:xlink="http://www.w3.org/1999/xlink" x="0px" y="0px"
	 viewBox="0 0 512 512" enable-background="new 0 0 512 512" xml:space="preserve">
<g>
	<path fill="#444" d="M480,96H32c-17.7,0-32,14.3-32,32v160c0,17.7,14.3,32,32,32h32v-96h384v96h32c17.7,0,32-14.3,32-32V128
		C512,110.3,497.7,96,480,96z M64,160H32v-32h32V160z"/>
	<polygon fill="#444" points="384,416 320,416 320,480 128,480 128,256 96,256 96,512 320,512 416,416 416,256 384,256 	"/>
	<polygon fill="#444" points="128,32 384,32 384,64 416,64 416,0 96,0 96,64 128,64 	"/>
	<rect x="160" y="288" fill="#444" width="192" height="32"/>
	<rect x="160" y="352" fill="#444" width="128" height="32"/>
</g>
</svg>
