<?xml version="1.0" encoding="utf-8"?>
<!-- Generator: Adobe Illustrator 19.1.0, SVG Export Plug-In . SVG Version: 6.00 Build 0)  -->
<!DOCTYPE svg PUBLIC "-//W3C//DTD SVG 1.1//EN" "http://www.w3.org/Graphics/SVG/1.1/DTD/svg11.dtd">
<svg version="1.1" id="Layer_1" xmlns="http://www.w3.org/2000/svg" xmlns:xlink="http://www.w3.org/1999/xlink" x="0px" y="0px"
	 viewBox="0 0 512 512" enable-background="new 0 0 512 512" xml:space="preserve">
<g>
	<path fill="#444" d="M80.4,217.3C98.9,135.1,176.9,75,266,75c33.8,0,66.1,8.7,94.5,24.4c7.1,3.9,13.7,8.7,20.2,13.5l-73.4,68.7
		l204.8,33L477.9,16.4l-41,42c-6.3-5-12.9-9.7-19.6-14.1C373.7,15.6,321.4,0,266,0C136.2,0,25.8,89.3,3.6,210.4L0,231.3h77.5
		L80.4,217.3z"/>
	<path fill="#444" d="M431.6,294.7C413.1,376.9,335.1,437,246.1,437c-33.8,0-66.1-8.7-94.5-24.4c-7.1-3.9-13.7-8.7-20.2-13.5
		l73.4-68.7L0,297.3l34.1,198.3l41-42c6.3,5,12.8,9.7,19.6,14.1c43.6,28.7,95.9,44.3,151.4,44.3c129.8,0,240.1-89.3,262.4-210.4
		l3.6-20.9h-77.5L431.6,294.7z"/>
</g>
</svg>
