<?xml version="1.0" encoding="utf-8"?>
<!-- Generator: Adobe Illustrator 19.1.0, SVG Export Plug-In . SVG Version: 6.00 Build 0)  -->
<!DOCTYPE svg PUBLIC "-//W3C//DTD SVG 1.1//EN" "http://www.w3.org/Graphics/SVG/1.1/DTD/svg11.dtd">
<svg version="1.1" id="Layer_1" xmlns="http://www.w3.org/2000/svg" xmlns:xlink="http://www.w3.org/1999/xlink" x="0px" y="0px"
	 viewBox="0 0 512 512" enable-background="new 0 0 512 512" xml:space="preserve">
<g>
	<path fill="#444" d="M68.6,374.8C30.8,374.8,0,405.7,0,443.5C0,481.4,30.8,512,68.6,512c37.9,0,68.7-30.6,68.7-68.5
		C137.3,405.7,106.5,374.8,68.6,374.8z"/>
	<path fill="#444" d="M1,176.8v90.5c64.4,1.2,124.9,26.9,170.6,72.7c45.8,45.7,71.4,106.3,72.6,171.1h90.9
		C332.6,327.9,184.2,179.3,1,176.8z"/>
	<path fill="#444" d="M1.1,0v90.5C231.7,93,418.8,280.3,421.3,511.2H512C509.5,230.4,281.7,2.5,1.1,0z"/>
</g>
</svg>
