<?xml version="1.0" encoding="utf-8"?>
<!-- Generated by IcoMoon.io -->
<!DOCTYPE svg PUBLIC "-//W3C//DTD SVG 1.1//EN" "http://www.w3.org/Graphics/SVG/1.1/DTD/svg11.dtd">
<svg version="1.1" xmlns="http://www.w3.org/2000/svg" xmlns:xlink="http://www.w3.org/1999/xlink" width="476" height="512" viewBox="0 0 476 512">
<path fill="#444444" d="M329.143 237.715q0-52.857-37.572-90.428t-90.428-37.572-90.429 37.572-37.572 90.428 37.572 90.428 90.429 37.572 90.428-37.572 37.572-90.428zM475.429 475.429q0 14.857-10.857 25.714t-25.714 10.857q-15.428 0-25.714-10.857l-98-97.714q-51.143 35.428-114 35.428-40.857 0-78.143-15.857t-64.286-42.857-42.857-64.286-15.857-78.143 15.857-78.143 42.857-64.286 64.286-42.857 78.143-15.857 78.143 15.857 64.286 42.857 42.857 64.286 15.857 78.143q0 62.857-35.428 114l98 98q10.572 10.572 10.572 25.714z"></path>
</svg>
