<?xml version="1.0" encoding="UTF-8" standalone="no"?>
<svg
   xmlns:dc="http://purl.org/dc/elements/1.1/"
   xmlns:cc="http://creativecommons.org/ns#"
   xmlns:rdf="http://www.w3.org/1999/02/22-rdf-syntax-ns#"
   xmlns:svg="http://www.w3.org/2000/svg"
   xmlns="http://www.w3.org/2000/svg"
   xmlns:sodipodi="http://sodipodi.sourceforge.net/DTD/sodipodi-0.dtd"
   xmlns:inkscape="http://www.inkscape.org/namespaces/inkscape"
   width="512"
   height="512"
   viewBox="0 0 512 512"
   id="svg3445"
   version="1.1"
   inkscape:version="0.91 r13725"
   sodipodi:docname="search.svg">
  <metadata
     id="metadata3453">
    <rdf:RDF>
      <cc:Work
         rdf:about="">
        <dc:format>image/svg+xml</dc:format>
        <dc:type
           rdf:resource="http://purl.org/dc/dcmitype/StillImage" />
        <dc:title></dc:title>
      </cc:Work>
    </rdf:RDF>
  </metadata>
  <defs
     id="defs3451" />
  <sodipodi:namedview
     pagecolor="#ffffff"
     bordercolor="#666666"
     borderopacity="1"
     objecttolerance="10"
     gridtolerance="10"
     guidetolerance="10"
     inkscape:pageopacity="0"
     inkscape:pageshadow="2"
     inkscape:window-width="888"
     inkscape:window-height="480"
     id="namedview3449"
     showgrid="false"
     inkscape:zoom="0.13169643"
     inkscape:cx="-41.762712"
     inkscape:cy="896"
     inkscape:window-x="0"
     inkscape:window-y="0"
     inkscape:window-maximized="0"
     inkscape:current-layer="svg3445" />
  <path
     d="m 347.34615,219.46154 q 0,-52.8095 -37.53756,-90.34706 -37.53756,-37.53756 -90.34705,-37.53756 -52.8095,0 -90.34706,37.53756 -37.53756,37.53756 -37.53756,90.34706 0,52.80949 37.53756,90.34705 37.53756,37.53756 90.34706,37.53756 52.80949,0 90.34705,-37.53756 37.53756,-37.53756 37.53756,-90.34705 z m 146.15385,237.5 q 0,14.84375 -10.84736,25.6911 Q 471.80529,493.5 456.96154,493.5 q -15.41467,0 -25.69111,-10.84736 l -97.91166,-97.6262 q -51.09675,35.39664 -113.89723,35.39664 -40.82031,0 -78.07242,-15.84285 Q 104.13702,388.73738 77.16136,361.76172 50.185697,334.78606 34.342849,297.53395 18.5,260.28185 18.5,219.46154 18.5,178.64123 34.342849,141.38912 50.185697,104.13702 77.16136,77.161358 104.13702,50.185697 141.38912,34.342849 178.64123,18.5 219.46154,18.5 q 40.82031,0 78.07241,15.842849 37.25211,15.842848 64.22777,42.818509 26.97566,26.975662 42.81851,64.227762 15.84285,37.25211 15.84285,78.07242 0,62.80048 -35.39664,113.89723 l 97.91166,97.91166 Q 493.5,441.83233 493.5,456.96154 Z"
     id="path3447"
     inkscape:connector-curvature="0" />
</svg>
