<?xml version="1.0" encoding="utf-8"?>
<!-- Generator: Adobe Illustrator 19.1.0, SVG Export Plug-In . SVG Version: 6.00 Build 0)  -->
<!DOCTYPE svg PUBLIC "-//W3C//DTD SVG 1.1//EN" "http://www.w3.org/Graphics/SVG/1.1/DTD/svg11.dtd">
<svg version="1.1" id="Layer_1" xmlns="http://www.w3.org/2000/svg" xmlns:xlink="http://www.w3.org/1999/xlink" x="0px" y="0px"
	 viewBox="0 0 512 512" enable-background="new 0 0 512 512" xml:space="preserve">
<g>
	<path fill="#444" d="M499.7,224.8L362.5,118.2c-13.9-10.9-34.1-8.4-44.9,5.6c-10.9,13.9-8.3,34,5.6,44.9l106.3,82.6l-107.6,92.9
		c-13.4,11.6-14.8,31.7-3.3,45.1c6.4,7.3,15.3,11.1,24.2,11.1c7.4,0,14.9-2.6,20.9-7.8l137.1-118.5c7.3-6.3,11.3-15.5,11.1-25
		C511.7,239.7,507.2,230.7,499.7,224.8z"/>
	<path fill="#444" d="M82.5,251.4l106.3-82.6c13.9-10.9,16.4-31,5.6-44.9c-10.9-14-31-16.6-44.9-5.6L12.4,224.8
		C4.8,230.7,0.3,239.7,0,249.3c-0.2,9.6,3.8,18.7,11.1,25l137.2,118.5c6,5.2,13.5,7.8,20.9,7.8c9,0,17.9-3.8,24.2-11.1
		c11.6-13.4,10.1-33.6-3.3-45.1L82.5,251.4z"/>
</g>
</svg>
