<?xml version="1.0" encoding="UTF-8" standalone="no"?>
<svg
   xmlns:dc="http://purl.org/dc/elements/1.1/"
   xmlns:cc="http://creativecommons.org/ns#"
   xmlns:rdf="http://www.w3.org/1999/02/22-rdf-syntax-ns#"
   xmlns:svg="http://www.w3.org/2000/svg"
   xmlns="http://www.w3.org/2000/svg"
   xmlns:sodipodi="http://sodipodi.sourceforge.net/DTD/sodipodi-0.dtd"
   xmlns:inkscape="http://www.inkscape.org/namespaces/inkscape"
   width="512"
   height="512"
   viewBox="0 0 512 512"
   id="svg3455"
   version="1.1"
   inkscape:version="0.91 r13725"
   sodipodi:docname="square-o.svg">
  <metadata
     id="metadata3463">
    <rdf:RDF>
      <cc:Work
         rdf:about="">
        <dc:format>image/svg+xml</dc:format>
        <dc:type
           rdf:resource="http://purl.org/dc/dcmitype/StillImage" />
        <dc:title></dc:title>
      </cc:Work>
    </rdf:RDF>
  </metadata>
  <defs
     id="defs3461" />
  <sodipodi:namedview
     pagecolor="#ffffff"
     bordercolor="#666666"
     borderopacity="1"
     objecttolerance="10"
     gridtolerance="10"
     guidetolerance="10"
     inkscape:pageopacity="0"
     inkscape:pageshadow="2"
     inkscape:window-width="774"
     inkscape:window-height="480"
     id="namedview3459"
     showgrid="false"
     inkscape:zoom="0.13169643"
     inkscape:cx="896"
     inkscape:cy="896"
     inkscape:window-x="0"
     inkscape:window-y="0"
     inkscape:window-maximized="0"
     inkscape:current-layer="svg3455" />
  <path
     d="m 374.77273,91.54545 -237.54546,0 q -18.84375,0 -32.26278,13.41904 -13.41904,13.41903 -13.41904,32.26278 l 0,237.54546 q 0,18.84375 13.41904,32.26278 13.41903,13.41904 32.26278,13.41904 l 237.54546,0 q 18.84375,0 32.26278,-13.41904 13.41904,-13.41903 13.41904,-32.26278 l 0,-237.54546 q 0,-18.84375 -13.41904,-32.26278 Q 393.61648,91.54545 374.77273,91.54545 Z M 457,137.22727 l 0,237.54546 q 0,33.97585 -24.12571,58.10156 Q 408.74858,457 374.77273,457 l -237.54546,0 Q 103.25142,457 79.12571,432.87429 55,408.74858 55,374.77273 L 55,137.22727 Q 55,103.25142 79.12571,79.12571 103.25142,55 137.22727,55 l 237.54546,0 q 33.97585,0 58.10156,24.12571 Q 457,103.25142 457,137.22727 Z"
     id="path3457"
     inkscape:connector-curvature="0" />
</svg>
