<?xml version="1.0" encoding="utf-8"?>
<!-- Generated by IcoMoon.io -->
<!DOCTYPE svg PUBLIC "-//W3C//DTD SVG 1.1//EN" "http://www.w3.org/Graphics/SVG/1.1/DTD/svg11.dtd">
<svg version="1.1" xmlns="http://www.w3.org/2000/svg" xmlns:xlink="http://www.w3.org/1999/xlink" width="403" height="512" viewBox="0 0 403 512">
<path fill="#444444" d="M320 73.143h-237.715q-18.857 0-32.286 13.429t-13.429 32.286v237.715q0 18.857 13.429 32.286t32.286 13.428h237.715q18.857 0 32.286-13.428t13.428-32.286v-237.715q0-18.857-13.428-32.286t-32.286-13.429zM402.286 118.857v237.715q0 34-24.143 58.143t-58.143 24.143h-237.715q-34 0-58.143-24.143t-24.143-58.143v-237.715q0-34 24.143-58.143t58.143-24.143h237.715q34 0 58.143 24.143t24.143 58.143z"></path>
</svg>
