<?xml version="1.0" encoding="UTF-8" standalone="no"?>
<svg
   xmlns:dc="http://purl.org/dc/elements/1.1/"
   xmlns:cc="http://creativecommons.org/ns#"
   xmlns:rdf="http://www.w3.org/1999/02/22-rdf-syntax-ns#"
   xmlns:svg="http://www.w3.org/2000/svg"
   xmlns="http://www.w3.org/2000/svg"
   xmlns:sodipodi="http://sodipodi.sourceforge.net/DTD/sodipodi-0.dtd"
   xmlns:inkscape="http://www.inkscape.org/namespaces/inkscape"
   width="512"
   height="512"
   viewBox="0 0 512 512"
   id="svg3465"
   version="1.1"
   inkscape:version="0.91 r13725"
   sodipodi:docname="trash-o.svg">
  <metadata
     id="metadata3473">
    <rdf:RDF>
      <cc:Work
         rdf:about="">
        <dc:format>image/svg+xml</dc:format>
        <dc:type
           rdf:resource="http://purl.org/dc/dcmitype/StillImage" />
        <dc:title></dc:title>
      </cc:Work>
    </rdf:RDF>
  </metadata>
  <defs
     id="defs3471" />
  <sodipodi:namedview
     pagecolor="#ffffff"
     bordercolor="#666666"
     borderopacity="1"
     objecttolerance="10"
     gridtolerance="10"
     guidetolerance="10"
     inkscape:pageopacity="0"
     inkscape:pageshadow="2"
     inkscape:window-width="878"
     inkscape:window-height="480"
     id="namedview3469"
     showgrid="false"
     inkscape:zoom="0.13169643"
     inkscape:cx="896"
     inkscape:cy="896"
     inkscape:window-x="0"
     inkscape:window-y="0"
     inkscape:window-maximized="0"
     inkscape:current-layer="svg3465" />
  <path
     d="m 201.18182,210.31818 0,164.45455 q 0,3.99716 -2.5696,6.56676 -2.56961,2.5696 -6.56677,2.5696 l -18.27272,0 q -3.99716,0 -6.56676,-2.5696 -2.56961,-2.5696 -2.56961,-6.56676 l 0,-164.45455 q 0,-3.99715 2.56961,-6.56676 2.5696,-2.5696 6.56676,-2.5696 l 18.27272,0 q 3.99716,0 6.56677,2.5696 2.5696,2.56961 2.5696,6.56676 z m 73.09091,0 0,164.45455 q 0,3.99716 -2.56961,6.56676 -2.5696,2.5696 -6.56676,2.5696 l -18.27272,0 q -3.99716,0 -6.56677,-2.5696 -2.5696,-2.5696 -2.5696,-6.56676 l 0,-164.45455 q 0,-3.99715 2.5696,-6.56676 2.56961,-2.5696 6.56677,-2.5696 l 18.27272,0 q 3.99716,0 6.56676,2.5696 2.56961,2.56961 2.56961,6.56676 z m 73.09091,0 0,164.45455 q 0,3.99716 -2.56961,6.56676 -2.5696,2.5696 -6.56676,2.5696 l -18.27272,0 q -3.99716,0 -6.56677,-2.5696 -2.5696,-2.5696 -2.5696,-6.56676 l 0,-164.45455 q 0,-3.99715 2.5696,-6.56676 2.56961,-2.5696 6.56677,-2.5696 l 18.27272,0 q 3.99716,0 6.56676,2.5696 2.56961,2.56961 2.56961,6.56676 z m 36.54545,206.71023 0,-270.66477 -255.81818,0 0,270.66477 q 0,6.28125 1.99858,11.56321 1.99858,5.28196 4.13991,7.70881 2.14134,2.42685 2.99787,2.42685 l 237.54546,0 q 0.85653,0 2.99787,-2.42685 2.14133,-2.42685 4.13991,-7.70881 1.99858,-5.28196 1.99858,-11.56321 z m -191.86364,-307.21023 127.9091,0 L 306.25,76.413352 q -1.99858,-2.569602 -4.85369,-3.140625 l -90.50711,0 q -2.85511,0.571023 -4.85369,3.140625 z M 457,118.95455 l 0,18.27272 q 0,3.99716 -2.5696,6.56676 -2.5696,2.56961 -6.56676,2.56961 l -27.40909,0 0,270.66477 q 0,23.69744 -13.41904,40.97088 -13.41903,17.27344 -32.26278,17.27344 l -237.54546,0 q -18.84375,0 -32.26278,-16.70241 Q 91.54545,441.8679 91.54545,418.17046 l 0,-271.80682 -27.40909,0 q -3.99716,0 -6.56676,-2.56961 Q 55,141.22443 55,137.22727 l 0,-18.27272 q 0,-3.99716 2.5696,-6.56677 2.5696,-2.5696 6.56676,-2.5696 l 88.22301,0 19.9858,-47.680396 q 4.28267,-10.563921 15.41761,-17.987216 11.13495,-7.423296 22.5554,-7.423296 l 91.36364,0 q 11.42045,0 22.5554,7.423296 11.13494,7.423295 15.41761,17.987216 l 19.98579,47.680396 88.22302,0 q 3.99716,0 6.56676,2.5696 2.5696,2.56961 2.5696,6.56677 z"
     id="path3467"
     inkscape:connector-curvature="0" />
</svg>
